<?xml version="1.0" encoding="UTF-8"?>
<svg id="Layer_2" data-name="Layer 2" xmlns="http://www.w3.org/2000/svg" viewBox="0 0 93.18 93.18">
  <defs>
    <style>
      .cls-1 {
        fill: #ff1d68;
      }

      .cls-2 {
        fill: none;
      }

      .cls-3 {
        fill: #cdff00;
      }

      .cls-4 {
        fill: #3327f7;
        stroke: #f3a133;
        stroke-miterlimit: 10;
      }
    </style>
  </defs>
  <g id="Layer_2-2" data-name="Layer 2">
    <g>
      <g>
        <path class="cls-4" d="M33.54,72.68c-14.41,0-26.09-11.68-26.09-26.09s11.68-26.09,26.09-26.09c4.75,0,9.21,1.27,13.05,3.49-7.8,4.51-13.05,12.94-13.05,22.6s5.25,18.09,13.05,22.6c-3.84,2.22-8.29,3.49-13.05,3.49Z"/>
        <path class="cls-1" d="M46.59,69.19c-7.8-4.51-13.05-12.94-13.05-22.6s5.25-18.09,13.05-22.6c7.8,4.51,13.05,12.94,13.05,22.6s-5.25,18.09-13.05,22.6Z"/>
        <path class="cls-3" d="M59.63,72.68c-4.75,0-9.21-1.27-13.05-3.49,7.8-4.51,13.05-12.94,13.05-22.6s-5.25-18.09-13.05-22.6c3.84-2.22,8.29-3.49,13.05-3.49,14.41,0,26.09,11.68,26.09,26.09s-11.68,26.09-26.09,26.09Z"/>
      </g>
      <rect class="cls-2" width="93.18" height="93.18"/>
    </g>
  </g>
</svg>