<?xml version="1.0" encoding="UTF-8"?>
<svg id="Layer_2" data-name="Layer 2" xmlns="http://www.w3.org/2000/svg" viewBox="0 0 93.18 93.18">
  <defs>
    <style>
      .cls-1 {
        fill: #e1ebf0;
      }

      .cls-2 {
        fill: none;
      }

      .cls-3 {
        fill: #949ba6;
      }

      .cls-4 {
        fill: #fff5f5;
      }

      .cls-5 {
        fill: #456dff;
      }

      .cls-6 {
        fill: #002bff;
      }
    </style>
  </defs>
  <g id="Layer_2-2" data-name="Layer 2">
    <g>
      <g>
        <path class="cls-4" d="M46.59,11.8c-6.34,0-12.28,1.7-17.4,4.66l3.54,14.25,9.51,8.35c1.28-.74,2.76-1.17,4.35-1.17V11.8Z"/>
        <g>
          <path class="cls-3" d="M81.37,46.59c0-19.21-15.57-34.79-34.79-34.79l-2.72,13,2.72,13.09c4.8,0,8.7,3.89,8.7,8.7,0,3.22-1.75,6.03-4.35,7.53l2.85,14.09,10.19,8.51c10.4-6.02,17.39-17.26,17.39-30.13Z"/>
          <path class="cls-4" d="M46.59,55.28l-4.21,13.09,4.21,13c6.34,0,12.28-1.7,17.4-4.66l-13.05-22.6c-1.28.74-2.76,1.17-4.35,1.17Z"/>
          <path class="cls-1" d="M11.8,46.59c0,19.21,15.57,34.79,34.79,34.79v-26.09c-4.8,0-8.7-3.89-8.7-8.7,0-3.22,1.75-6.03,4.35-7.53l-13.05-22.6c-10.4,6.02-17.39,17.26-17.39,30.13Z"/>
          <path class="cls-6" d="M46.59,30.71l-2.72,5.15,2.72,4.96c3.19,0,5.78,2.59,5.78,5.78s-2.59,5.78-5.78,5.78l-2.72,4.62,2.72,5.48c8.76,0,15.88-7.12,15.88-15.88s-7.12-15.88-15.88-15.88Z"/>
          <path class="cls-5" d="M40.81,46.59c0-3.19,2.59-5.78,5.78-5.78v-10.1c-8.76,0-15.88,7.12-15.88,15.88s7.12,15.88,15.88,15.88v-10.1c-3.19,0-5.78-2.59-5.78-5.78Z"/>
        </g>
      </g>
      <rect class="cls-2" width="93.18" height="93.18"/>
    </g>
  </g>
</svg>