<?xml version="1.0" encoding="UTF-8"?>
<svg id="Layer_2" data-name="Layer 2" xmlns="http://www.w3.org/2000/svg" viewBox="0 0 90.35 90.35">
  <defs>
    <style>
      .cls-1 {
        fill: #fff;
      }

      .cls-2 {
        fill: none;
      }

      .cls-3 {
        fill: #f2f2f2;
      }

      .cls-4 {
        fill: #cdd2f1;
      }

      .cls-5 {
        fill: #949ba6;
      }
    </style>
  </defs>
  <g id="Layer_2-2" data-name="Layer 2">
    <g>
      <rect class="cls-2" width="90.35" height="90.35"/>
      <g>
        <path class="cls-4" d="M26.94,66.73v6.63h19.9l1.66-3.32-1.66-3.32-9.95-1.66-9.95,1.66Z"/>
        <polygon class="cls-5" points="66.73 20.31 60.1 20.31 46.83 66.73 46.83 73.36 66.73 73.36 66.73 20.31"/>
        <path class="cls-1" d="M34.54,16.99l-4.29,6.63-6.63,4.29v38.82h18.24l1.66-24.87-1.66-24.87h-7.32Z"/>
        <path class="cls-3" d="M60.1,16.99h-18.24v6.63l1.66,1.66-1.66,1.66v3.32l1.66,1.66-1.66,1.66v33.16h18.24V16.99Z"/>
        <path class="cls-3" d="M34.54,16.99l-10.92,10.92h10.92v-10.92Z"/>
        <path class="cls-3" d="M41.86,60.1h-11.61v-3.32h11.61l1.66,1.66-1.66,1.66Z"/>
        <path class="cls-3" d="M41.86,53.47h-11.61v-3.32h11.61l1.66,1.66-1.66,1.66Z"/>
        <path class="cls-3" d="M41.86,46.83h-11.61v-3.32h11.61l1.66,1.66-1.66,1.66Z"/>
        <path class="cls-3" d="M41.86,40.2h-11.61v-3.32h11.61l1.66,1.66-1.66,1.66Z"/>
        <rect class="cls-5" x="41.86" y="30.25" width="11.61" height="3.32"/>
        <rect class="cls-5" x="41.86" y="23.62" width="11.61" height="3.32"/>
        <rect class="cls-5" x="41.86" y="56.78" width="11.61" height="3.32"/>
        <rect class="cls-5" x="41.86" y="50.15" width="11.61" height="3.32"/>
        <rect class="cls-5" x="41.86" y="43.52" width="11.61" height="3.32"/>
        <rect class="cls-5" x="41.86" y="36.89" width="11.61" height="3.32"/>
      </g>
    </g>
  </g>
</svg>