<?xml version="1.0" encoding="UTF-8"?>
<svg id="Layer_2" data-name="Layer 2" xmlns="http://www.w3.org/2000/svg" viewBox="0 0 92.47 92.47">
  <defs>
    <style>
      .cls-1 {
        fill: none;
      }

      .cls-2 {
        fill: #949ba6;
      }

      .cls-3 {
        fill: #4c5ce1;
      }

      .cls-4 {
        fill: #456dff;
      }

      .cls-5 {
        fill: #002bff;
      }
    </style>
  </defs>
  <g id="Layer_2-2" data-name="Layer 2">
    <g>
      <g>
        <path class="cls-4" d="M46.24,77.44c-17.13,0-31.2-14.07-31.2-31.2s14.07-31.2,31.2-31.2,31.2,14.07,31.2,31.2-14.07,31.2-31.2,31.2Z"/>
        <polygon class="cls-3" points="16.98 24.74 13.09 24.74 13.09 13.09 24.74 13.09 24.74 16.98 16.98 16.98 16.98 24.74"/>
        <g>
          <polygon class="cls-3" points="79.38 24.74 75.5 24.74 75.5 16.98 67.73 16.98 67.73 13.09 79.38 13.09 79.38 24.74"/>
          <polygon class="cls-3" points="79.38 79.38 67.73 79.38 67.73 75.5 75.5 75.5 75.5 67.73 79.38 67.73 79.38 79.38"/>
        </g>
        <polygon class="cls-3" points="24.74 79.38 13.09 79.38 13.09 67.73 16.98 67.73 16.98 75.5 24.74 75.5 24.74 79.38"/>
        <path class="cls-2" d="M46.24,13.09c-18.2,0-33.14,14.94-33.14,33.14s14.94,33.14,33.14,33.14,33.14-14.94,33.14-33.14S64.44,13.09,46.24,13.09ZM17.07,48.18h11.73c.12,4.15.62,8.08,1.46,11.65h-9.78c-1.87-3.52-3.14-7.47-3.42-11.65ZM48.18,28.76v-11.43c3.55,1.15,6.7,5.48,8.83,11.43h-8.83ZM58.2,32.64c.9,3.54,1.45,7.49,1.58,11.65h-11.6v-11.65h10.02ZM44.29,17.32v11.43h-8.83c2.13-5.95,5.28-10.29,8.83-11.43ZM44.29,32.64v11.65h-11.6c.14-4.16.69-8.11,1.58-11.65h10.02ZM28.81,44.29h-11.73c.28-4.18,1.55-8.13,3.42-11.65h9.78c-.83,3.57-1.34,7.5-1.46,11.65ZM32.69,48.18h11.6v11.65h-10.02c-.9-3.54-1.45-7.49-1.58-11.65ZM44.29,63.71v11.43c-3.55-1.15-6.7-5.48-8.83-11.43h8.83ZM48.18,75.15v-11.43h8.83c-2.13,5.95-5.28,10.29-8.83,11.43ZM48.18,59.83v-11.65h11.6c-.14,4.16-.69,8.11-1.58,11.65h-10.02ZM63.66,48.18h11.73c-.28,4.18-1.55,8.13-3.42,11.65h-9.78c.83-3.57,1.34-7.5,1.46-11.65ZM63.66,44.29c-.12-4.15-.62-8.08-1.46-11.65h9.78c1.87,3.52,3.14,7.47,3.42,11.65h-11.73ZM69.48,28.76h-8.37c-1.28-3.93-2.97-7.31-4.98-9.88,5.36,1.95,9.98,5.41,13.35,9.88ZM36.33,18.87c-2.02,2.58-3.71,5.95-4.98,9.88h-8.37c3.37-4.47,7.99-7.94,13.35-9.88ZM22.99,63.71h8.37c1.28,3.93,2.97,7.31,4.98,9.88-5.36-1.95-9.98-5.41-13.35-9.88ZM56.14,73.6c2.02-2.58,3.71-5.95,4.98-9.88h8.37c-3.37,4.47-7.99,7.94-13.35,9.88Z"/>
        <path class="cls-5" d="M77.44,46.24c0-17.13-14.07-31.2-31.2-31.2v62.4c17.13,0,31.2-14.07,31.2-31.2Z"/>
        <path class="cls-3" d="M79.38,46.24c0-18.2-14.94-33.14-33.14-33.14v66.29c18.2,0,33.14-14.94,33.14-33.14ZM56.14,73.6c2.02-2.58,3.71-5.95,4.98-9.88h8.37c-3.37,4.47-7.99,7.94-13.35,9.88ZM71.98,59.83h-9.78c.83-3.57,1.34-7.5,1.46-11.65h11.73c-.28,4.18-1.55,8.13-3.42,11.65ZM71.98,32.64c1.87,3.52,3.14,7.47,3.42,11.65h-11.73c-.12-4.15-.62-8.08-1.46-11.65h9.78ZM69.48,28.76h-8.37c-1.28-3.93-2.97-7.31-4.98-9.88,5.36,1.95,9.98,5.41,13.35,9.88ZM48.18,17.32c3.55,1.15,6.7,5.48,8.83,11.43h-8.83v-11.43ZM48.18,32.64h10.02c.9,3.54,1.45,7.49,1.58,11.65h-11.6v-11.65ZM48.18,48.18h11.6c-.14,4.16-.69,8.11-1.58,11.65h-10.02v-11.65ZM48.18,63.71h8.83c-2.13,5.95-5.28,10.29-8.83,11.43v-11.43Z"/>
      </g>
      <rect class="cls-1" width="92.47" height="92.47"/>
    </g>
  </g>
</svg>