<?xml version="1.0" encoding="UTF-8"?>
<svg id="Layer_2" data-name="Layer 2" xmlns="http://www.w3.org/2000/svg" viewBox="0 0 941.82 848.6">
  <defs>
    <style>
      .cls-1 {
        fill: #3c53a4;
      }

      .cls-2 {
        fill: #cadc49;
      }

      .cls-3 {
        fill: #ee3461;
      }

      .cls-4 {
        fill: #ad285a;
      }

      .cls-5 {
        fill: #fad3e4;
      }

      .cls-6 {
        fill: #5bbc68;
      }

      .cls-7 {
        fill: #0b0809;
      }
    </style>
  </defs>
  <g id="background">
    <rect class="cls-1" width="941.82" height="848.6"/>
  </g>
  <g id="elipse">
    <circle class="cls-6" cx="470.91" cy="406.41" r="393.88"/>
  </g>
  <g id="hair">
    <path class="cls-2" d="M357.45,359.94c-1.41-.47-55.06-24.47-56.94-40s36.71-18.82,36.71-18.82c0,0-34.82-45.18-27.29-56.47s36.71-4.24,36.71-4.24c0,0-32-41.41-16.47-51.29s40.47,13.18,40.47,13.18c0,0-9.41-47.53,8.94-48s31.06,15.06,31.06,15.06c0,0-5.65-43.29,12.24-46.59s42.35,31.06,42.35,31.06c0,0-2.75-39.93,26.35-35.76s30.59,41.41,30.59,41.41c0,0,18.35-34.35,30.59-16s10.35,54.12,10.35,54.12c0,0,12.71-20.71,21.65-12.71s-3.29,47.06-3.29,47.06c0,0,26.44-18.29,27.76-1.88s-12.24,47.53-12.24,47.53c0,0,24.47-19.29,28.24-1.41s-28.24,53.65-28.24,53.65l-239.53,30.12Z"/>
  </g>
  <g id="dorso">
    <path class="cls-3" d="M818.3,848.29l-235.65-165.59v-103.85c0-9.75-7.9-17.65-17.65-17.65h-142.59c-9.75,0-17.65,7.9-17.65,17.65v102.29l-237.88,167.16h651.41Z"/>
  </g>
  <g id="base">
    <path class="cls-7" d="M578.14,418.65c24.75-3.14,43.88-24.26,43.87-49.86l-.02-42.93c0-9.75-7.91-17.64-17.66-17.64h-16.81c-2.33-23.57-6.78-45.97-12.18-64.6-11.13-38.41-52.49-82.86-116.02-73.69,0,0-115.06,18.35-105.88,114.35,1.92,20.07,5.11,41.23,9.88,62l-27.98,7.82c-9.39,2.62-14.87,12.36-12.24,21.75l11.56,41.34c7.47,26.73,35.2,42.34,61.92,34.86l11.8-3.3c2.72,3.31,5.56,6.44,8.52,9.4,7.88,12.23,16.87,33.11,19.84,66.83,5.65,64.24-13.41,109.41,68.47,103.76,79.42-5.48,54.58-50.14,58.17-180.34,6.1-8.88,10.97-18.92,14.75-29.77Z"/>
  </g>
  <g id="eyes">
    <g>
      <path class="cls-5" d="M376.67,291.8c0,7.21,1.91,13.93,5.22,19.59-6.15-5.12-10.86-11.92-13.47-19.68,2.64-7.86,7.44-14.74,13.71-19.9-3.45,5.74-5.46,12.61-5.46,19.99Z"/>
      <path class="cls-5" d="M451.57,291.71c-2.6,7.75-7.3,14.54-13.44,19.66,3.3-5.65,5.2-12.36,5.2-19.56s-2-14.23-5.44-19.97c6.25,5.15,11.05,12.02,13.68,19.87Z"/>
      <path class="cls-5" d="M376.67,291.8c0,7.21,1.91,13.93,5.22,19.59-6.15-5.12-10.86-11.92-13.47-19.68,2.64-7.86,7.44-14.74,13.71-19.9-3.45,5.74-5.46,12.61-5.46,19.99Z"/>
      <path class="cls-4" d="M443.33,291.8c0,7.2-1.91,13.91-5.2,19.56-7.61,6.39-17.43,10.23-28.13,10.23s-20.5-3.83-28.1-10.21c-3.3-5.66-5.22-12.38-5.22-19.59s2.01-14.25,5.46-19.99c7.57-6.25,17.28-10,27.86-10s20.31,3.76,27.89,10.03c3.44,5.73,5.44,12.6,5.44,19.97Z"/>
    </g>
    <g>
      <path class="cls-5" d="M497.64,274.25c1.7,7.01,5.15,13.09,9.69,17.8-7.18-3.53-13.37-9.02-17.73-15.95.71-8.26,3.75-16.08,8.63-22.57-2,6.39-2.33,13.54-.59,20.72Z"/>
      <path class="cls-5" d="M570.39,256.49c-.7,8.15-3.67,15.85-8.42,22.27,1.87-6.27,2.14-13.24.44-20.24-1.74-7.16-5.3-13.36-10-18.12,7.29,3.53,13.57,9.07,17.99,16.08Z"/>
      <path class="cls-5" d="M497.64,274.25c1.7,7.01,5.15,13.09,9.69,17.8-7.18-3.53-13.37-9.02-17.73-15.95.71-8.26,3.75-16.08,8.63-22.57-2,6.39-2.33,13.54-.59,20.72Z"/>
      <path class="cls-4" d="M562.41,258.52c1.7,7,1.43,13.97-.44,20.24-5.89,8.01-14.52,14.06-24.92,16.58s-20.82,1.12-29.72-3.29c-4.55-4.72-7.99-10.8-9.69-17.8s-1.41-14.32.59-20.72c5.88-7.86,14.43-13.8,24.72-16.29s20.62-1.14,29.47,3.16c4.7,4.76,8.26,10.96,10,18.12Z"/>
    </g>
  </g>
</svg>